PathFileType	4	(X/Y/Z)	OpenSim_Sub06_CSStiffKnee_Gyro.trc
DataRate	CameraRate	NumFrames	NumMarkers	Units	OrigDataRate	OrigDataStartFrame	OrigNumFrames
100	100	27	8	m	100	1792	7164
Frame#	Time	torso_imu_offset_imu	pelvis_imu_offset_imu	tibia_r_imu_offset_imu	femur_r_imu_offset_imu	tibia_l_imu_offset_imu	femur_l_imu_offset_imu	toes_r_imu_offset_imu	toes_l_imu_offset_imu
				X1	Y1	Z1	X2	Y2	Z2	X3	Y3	Z3	X4	Y4	Z4	X5	Y5	Z5	X6	Y6	Z6	X7	Y7	Z7	X8		Y8	Z8	

1792	17.91000000	-0.54340777	-0.13061127	-0.10980642	-0.10167670	0.05782104	-0.01259579	1.07058516	-0.12507209	4.41998409	1.22141130	-0.15900825	-0.19755943	-0.02696706	0.01294008	0.79439948	0.10631202	0.07320087	0.89258882	-0.93531100	2.41357628	2.92272653	-0.06871492	-0.17761529	0.24916337
1793	17.92000000	-0.49841938	-0.08757409	-0.10184473	-0.12045773	-0.01751630	0.00360681	1.27117719	-0.12087551	4.26635357	1.31202267	-0.05130860	-0.30895274	-0.00591045	0.03753301	0.76170482	0.00169989	0.05666588	0.88621846	-0.65099067	1.97191602	3.17597192	-0.09880613	-0.16340013	0.24164046
1794	17.93000000	-0.46138197	-0.05908834	-0.09041879	-0.15043476	-0.09844305	0.00351420	1.65680426	0.11493691	4.05764669	1.26847969	-0.03732557	-0.37456315	-0.00124479	0.08114034	0.76770677	-0.12550578	0.07658332	0.86515639	-0.61141145	1.51494934	3.37763256	-0.06511180	-0.15640443	0.21386316
1795	17.94000000	-0.42947762	-0.01249615	-0.07548449	-0.14525959	-0.18049379	-0.00549352	1.74639784	0.22708704	3.71311916	1.12198370	-0.11446834	-0.31384683	-0.02991577	0.10708819	0.79999535	-0.24086177	0.11301561	0.86036628	-0.71588437	1.49501309	3.11925106	-0.04166716	-0.18110861	0.20190628
1796	17.95000000	-0.39806924	0.03797205	-0.06489516	-0.05907905	-0.25917988	-0.01759733	0.94572740	-0.16413822	3.20905439	0.95446082	-0.31534639	-0.18823776	-0.06311716	0.11991012	0.83798639	-0.29425320	0.12700197	0.85977519	0.06586018	1.70880596	2.50287070	-0.05487172	-0.18104689	0.21751720
1797	17.96000000	-0.36889740	0.07372352	-0.05465005	0.04892207	-0.33111227	-0.03588388	0.00111104	-0.34066307	2.72314861	0.75548034	-0.66472787	-0.05874391	-0.09977862	0.13657348	0.88215628	-0.30371946	0.11527650	0.86656894	0.24997785	1.71307073	1.86273541	-0.09329493	-0.21133058	0.26028091
1798	17.97000000	-0.33378730	0.12022275	-0.04900753	0.14644807	-0.37543505	-0.03144097	-0.05948342	-0.13864721	2.37113435	0.60421662	-0.91938654	0.11322225	-0.12593003	0.15537453	0.94961110	-0.28651800	0.08645790	0.86674309	-0.31429531	1.36671286	1.25465835	-0.14174854	-0.23301268	0.31133710
1799	17.98000000	-0.29476741	0.16245145	-0.03834117	0.22546524	-0.41002397	-0.03040419	-0.18249919	-0.19387354	2.00562747	0.38231311	-0.80788401	0.30392341	-0.08260800	0.17159033	1.05243915	-0.25829608	0.06016871	0.84584873	-1.06592213	0.89755682	0.62479283	-0.15421563	-0.27978605	0.34424540
1800	17.99000000	-0.26881211	0.19695990	-0.01740312	0.29467113	-0.42645707	-0.04148348	-0.66428695	-0.45956660	1.34709928	0.00312559	-0.43186404	0.45562898	0.03579502	0.19316332	1.18015036	-0.20386831	0.02244012	0.77729281	-1.37328659	0.41874850	0.01148109	-0.19564440	-0.32650770	0.35514128
1801	18.00000000	-0.23351650	0.23136243	-0.01280603	0.36760753	-0.42837160	-0.04306630	-0.87738254	-0.56581852	0.48408327	-0.37023879	-0.10991920	0.55847874	0.12752947	0.23205308	1.32424916	-0.14004589	-0.00257897	0.68794801	-1.53513941	-0.09641108	-0.59468057	-0.19469566	-0.41971599	0.36316464
1802	18.01000000	-0.18489141	0.28012354	-0.00153006	0.46609690	-0.40405957	-0.06339462	-1.03645534	-0.58444406	-0.22541043	-0.51083858	-0.01504620	0.61218336	0.21103367	0.28541595	1.45167142	-0.05765165	-0.01750240	0.57944789	-0.08495304	-1.12998800	-1.41873534	-0.26319758	-0.53896860	0.39291683
1803	18.02000000	-0.14889074	0.34532967	0.00784924	0.56348394	-0.37195038	-0.10939074	-1.32963277	-0.57275990	-0.65631103	-0.42688463	-0.07163651	0.64174352	0.28133791	0.35268188	1.58986363	0.00807133	0.00498251	0.45999793	3.54950566	-2.47838853	-2.16444119	-0.27708379	-0.65868503	0.41338121
1804	18.03000000	-0.06410359	0.42848479	-0.00164838	0.65065795	-0.36796200	-0.16718954	-1.50231882	-0.54482535	-0.99391360	-0.30948659	-0.15938162	0.66476179	0.28915110	0.38148953	1.77640697	0.06284432	0.05996635	0.33083572	1.85759893	-3.93454470	-1.49207120	-0.29562246	-0.80809416	0.43000530
1805	18.04000000	0.01334293	0.53190614	-0.00647499	0.76148390	-0.37927543	-0.21063818	-1.61151497	-0.59247259	-1.48285866	-0.18302568	-0.34282863	0.66557324	0.31446537	0.36338113	1.98232775	0.14597303	0.12037451	0.20301416	1.87241927	-2.64083628	0.13982494	-0.31224797	-0.95789026	0.46217339
1806	18.05000000	0.09912677	0.51315816	-0.10222107	0.84175304	-0.46804006	-0.13643105	-1.30735614	-0.51239794	-1.95704838	-0.08468724	-0.84933257	0.54280034	0.27196836	0.36365713	2.14932480	0.20370312	0.20786289	0.01196679	2.37547345	1.80848460	-0.83185037	-0.30890545	-1.25854196	0.49625896
1807	18.06000000	0.14009916	0.39400324	-0.25127454	0.74095793	-0.80735513	0.16002194	-1.21864794	-0.29979811	-2.22510801	-0.45044511	-1.55517488	0.30770703	0.01225918	0.32826622	2.31154256	0.16422843	0.31240332	-0.34320472	-2.70002553	0.99993847	-1.40791219	-0.38133884	-1.69449491	0.59589974
1808	18.07000000	0.05595980	0.42456298	-0.22962369	0.74746274	-1.03975277	0.71992302	-1.26079777	-0.19555381	-2.26778836	-0.75245692	-1.56531935	0.11075032	-0.21636456	0.19159045	2.40725545	-0.01277251	0.40783617	-0.73795927	2.87604762	1.24770569	0.23015552	-0.52239609	-2.20900705	0.82885849
1809	18.08000000	-0.02873128	0.50813472	-0.09892325	0.71550146	-0.57315003	1.01362038	0.52001436	-0.20491152	-2.31780412	0.36116609	-0.08203573	0.28105891	-0.19290559	0.03726009	2.52768637	-0.17519655	0.44227139	-1.05455814	-0.47012325	-0.52934894	-0.36703241	-0.65886401	-2.71040002	1.11052967
1810	18.09000000	-0.05555672	0.37995325	0.00280076	-0.08256283	-0.01618741	0.61968680	1.77791359	-0.24092895	-2.41175086	1.10049275	1.28841272	0.88307724	-0.15506137	-0.10219642	2.74810327	-0.17590800	0.36765634	-1.37896439	0.06526209	-0.19841390	0.04967051	-0.74740991	-3.21357634	1.47279611
1811	18.10000000	0.10728029	0.21813854	0.01418218	-0.62580304	0.14791403	0.28413397	2.21863679	-0.11211071	-2.25358871	0.13390547	0.98573085	0.89668943	-0.19447656	-0.40515578	2.90689238	-0.00892637	0.45670273	-1.67221663	-0.03796014	-0.43420874	0.05612830	-0.95744718	-3.77713418	1.85531606
1812	18.11000000	0.22840121	0.12769175	-0.01197067	-0.46479077	0.29239756	0.05327957	3.80515695	-0.02123016	-1.95432568	-0.69199045	0.17436318	0.23009470	-0.05655291	-0.73482117	2.88216904	0.07972103	0.73987920	-1.99602728	-0.27532564	-0.38650683	0.26340800	-0.81233872	-4.41535306	2.13926169
1813	18.12000000	0.18621844	0.12744313	0.04515279	-0.14420581	0.27446043	-0.08121016	3.86919486	-0.50206952	-1.57049582	-0.60427762	-0.30292869	-0.54870855	0.32772494	-0.81833347	2.75862532	0.10900852	1.04672147	-2.39739803	-0.19509831	-0.31660582	0.33250654	-0.11661599	-5.02372085	2.28860435
1814	18.13000000	0.18784055	0.10447208	0.18310353	0.20054188	0.18367545	-0.15721693	2.42974536	-0.69304226	-1.34941675	-0.47764831	-0.41140044	-1.00861514	0.70199986	-0.71649673	2.65309830	0.33953304	1.34732257	-2.68034219	-0.16487171	-0.25965249	0.24861092	0.74607818	-5.29573508	2.29611547
1815	18.14000000	0.21020344	0.00167267	0.35474593	0.46211294	0.13769734	-0.24206659	1.34911484	-0.28880656	-0.89231408	-0.85663062	-0.44399444	-1.23052762	0.93836096	-0.57218109	2.58902563	0.47621708	1.43131146	-2.71371942	-0.08705523	-0.11576755	0.16032677	1.62856782	-5.32847964	2.18087701
1816	18.15000000	0.31138951	-0.08270465	0.43209617	0.61180671	0.11440185	-0.21830026	0.79637277	0.04149397	-0.18936538	-1.41132535	-0.71161831	-1.28305731	1.18236719	-0.51835817	2.41936689	0.52157666	1.28479773	-2.46190364	-0.03074155	0.00274575	0.05696866	2.59350981	-4.73014116	1.89684480
1817	18.16000000	0.36145569	-0.08336141	0.45177075	0.64511833	0.10908213	-0.14500470	0.23425344	-0.21799009	0.15389488	-1.86662186	-1.08695151	-1.21838465	1.58391877	-0.53748038	2.09038956	0.64550305	1.13135759	-2.10154565	0.03049799	0.10317882	-0.01694199	2.50597373	-3.55014321	1.76762190
1818	18.17000000	0.36304782	-0.03845779	0.43956479	0.67310635	0.11706983	-0.04542000	-0.45180484	-0.41012305	0.04436677	-2.09146206	-1.09766607	-0.90670249	1.92534546	-0.47258916	1.80064247	0.69573855	0.98814892	-1.75913122	0.04888096	0.14892274	-0.05908994	1.14715764	-2.66229389	2.09447328
